<svg width="120" height="167" viewBox="0 0 120 167" fill="none" xmlns="http://www.w3.org/2000/svg">
<path d="M60.2122 82.5083C58.0012 88.8006 56.1682 95.3729 54.4405 101.727C54.3977 101.443 54.3534 101.158 54.3074 100.873L54.289 100.758L54.2668 100.644C52.3724 90.9473 46.9633 82.7084 37.4611 76.7522C36.8443 76.3624 36.2193 75.9639 35.5851 75.5596C29.8785 71.9213 23.4334 67.8123 15.604 65.3008C26.0718 62.5742 34.5375 58.0913 41.3946 52.1442C49.0986 45.4627 54.4321 37.2281 58.3662 28.3591C58.1717 31.1753 58.0102 34.0879 58.006 36.8839C57.6088 50.6871 69.1516 57.7616 78.5362 61.4064C75.2179 62.7611 71.7632 64.9878 69.5121 67.9976C69.4436 68.0796 69.3746 68.1622 69.3051 68.2454C66.2212 71.9369 62.161 76.7971 60.2122 82.5083ZM5.93084 67.2695C5.9309 67.2693 5.9337 67.2668 5.93944 67.2622C5.93371 67.2674 5.93077 67.2697 5.93084 67.2695ZM6.55557 62.1643C6.5479 62.1524 6.5445 62.1465 6.54472 62.1465C6.54495 62.1466 6.54878 62.1526 6.55557 62.1643Z" stroke="#81ADC8" stroke-width="14"/>
<path d="M95.9252 135.609C95.5564 136.659 95.2128 137.736 94.8877 138.818C93.6826 136.425 91.8005 134.356 89.1952 132.723C88.9582 132.573 88.7158 132.418 88.4679 132.26C87.1381 131.411 85.6473 130.459 83.9574 129.615C86.6019 128.557 88.8882 127.157 90.8595 125.447C92.5572 123.975 93.9641 122.322 95.1451 120.556C95.7897 124.295 98.5617 126.649 101.277 128.111C100.689 128.557 100.144 129.078 99.6913 129.676C99.661 129.712 99.6303 129.749 99.5992 129.786C98.4464 131.164 96.7526 133.189 95.9252 135.609Z" stroke="#CD4631" stroke-width="8"/>
<path d="M26.8499 156.531C26.7499 156.816 26.6527 157.104 26.5581 157.395C25.7949 156.273 24.7688 155.287 23.4701 154.473C23.3238 154.38 23.1733 154.284 23.0184 154.185C22.4572 153.827 21.8391 153.432 21.159 153.046C22.4264 152.438 23.5575 151.694 24.5636 150.822C25.3523 150.138 26.0417 149.394 26.6479 148.609C27.2558 150.218 28.4829 151.357 29.7525 152.153C29.578 152.325 29.4137 152.51 29.2633 152.708C29.244 152.731 29.2243 152.754 29.2043 152.778C28.4992 153.62 27.3945 154.94 26.8499 156.531Z" stroke="black" stroke-width="6"/>
</svg>
