<svg width="79" height="79" viewBox="0 0 79 79" fill="none" xmlns="http://www.w3.org/2000/svg">
<path d="M54.1792 23.3174C53.8406 26.6622 53.5969 29.4517 53.2584 32.2278C53.0688 33.7445 52.4458 35.058 50.7396 35.4236C49.3177 35.7215 47.8417 34.9361 46.9886 33.1892C46.1625 31.5101 45.5667 29.709 44.9438 27.9351C43.1427 22.8434 40.3667 18.3205 36.9271 14.1903C35.8573 12.9038 34.8011 11.6174 33.5688 10.1278C33.2979 11.0351 33.0813 11.7663 32.8646 12.4976C30.5625 20.4465 29.7771 28.5445 30.1292 36.7913C30.2375 39.459 29.9261 42.1809 29.5469 44.8351C29.3031 46.5413 28.6667 48.2747 26.6084 48.6538C25.1323 48.9247 23.6698 47.7059 22.7761 45.4851C22.1802 43.9955 21.7875 42.4111 21.2458 40.8945C20.9479 40.0413 20.5146 39.2424 20.1219 38.3486C15.1521 44.3882 18.9438 64.308 25.5656 67.2195C25.5927 61.884 28.0438 57.4695 30.9417 53.2986C35.0448 47.3945 37.2792 40.8674 38.024 33.7715C38.0781 33.2434 38.1865 32.7017 38.2813 32.1872C38.7417 29.7767 39.7302 29.384 41.5313 31.1715C42.6958 32.3226 43.725 33.7445 44.4021 35.2205C47.7604 42.4517 49.1552 49.9538 46.8802 57.8351C46.6229 58.7017 46.0406 59.9205 46.474 60.5434C47.2323 61.4913 48.424 59.8663 48.6813 59.2028C49.3584 57.4559 49.7781 55.6278 50.3198 53.8267C50.6584 52.7028 50.8615 51.4705 51.4708 50.4955C51.9448 49.7372 52.974 48.8028 53.6781 48.8705C54.4094 48.9382 55.425 49.9809 55.6688 50.7934C57.4563 56.8465 56.6167 62.3851 51.0375 67.084C48.1667 69.508 44.6323 70.2934 41.0167 70.7674C36.9406 71.2955 32.9188 71.458 28.8292 70.5236C26.8792 70.0767 24.8479 69.7788 23.6698 69.3455C22.4917 68.9122 21.4896 68.032 21.0156 67.3007C14.9896 57.9976 14.0011 48.1934 18.2396 37.9153C19.1198 35.7892 20.8125 35.3424 22.3021 37.1028C23.399 38.4028 24.0219 40.1497 24.7125 41.7747C25.1865 42.9122 25.4438 44.1445 25.7688 45.3361C26.175 46.8257 26.7709 47.0559 27.1771 46.7986C27.6781 46.6497 27.9761 44.8486 27.9219 43.0476C27.8271 40.082 27.8813 37.1028 27.5698 34.1642C26.6625 25.5517 28.7615 17.4809 31.8219 9.57258C32.5802 7.5955 33.4469 7.35175 35.0719 8.733C41.7344 14.3799 46.5417 21.259 48.7219 29.8174C49.0604 31.1174 49.1688 32.5799 50.8209 33.609C50.9833 32.3497 51.1188 31.307 51.2677 30.2778C51.6469 27.732 51.8906 25.159 52.4594 22.6674C52.8115 21.1642 53.8542 20.8528 54.9511 21.9361C56.3865 23.358 57.7948 24.9288 58.7292 26.7028C62.2094 33.3382 63.4011 40.5424 63.374 47.9632C63.3469 53.7997 62.2636 59.4601 59.5823 64.6736C58.675 66.4476 57.1448 67.9101 55.8448 69.4674C55.2625 70.1715 53.9354 69.9413 54.5448 68.3705C54.599 68.2351 54.6667 68.0726 54.7615 67.9372C59.799 61.1799 60.3 53.2715 60.3677 45.309C60.4219 38.958 59.5011 32.7288 56.5354 26.9872C55.9125 25.809 55.1136 24.7528 54.1792 23.3174ZM53.4479 51.0913C52.649 53.7455 52.0261 55.9392 51.3083 58.1195C50.7396 59.8392 49.8729 61.3965 48.1667 62.2497C46.1896 63.2517 44.2667 62.1413 44.1584 59.9205C44.1177 59.0132 44.1583 58.0788 44.3344 57.1986C45.7156 50.1299 45.0656 43.2778 42.3031 36.6288C41.8292 35.4913 41.1386 34.4486 40.4479 33.2028C40.2042 33.609 40.0281 35.0851 40.0011 35.7215C39.825 40.5424 39.2834 45.309 36.7511 49.5611C35.2344 52.0934 33.5281 54.5174 31.8761 56.982C30.0479 59.7309 28.4229 62.5747 27.8271 65.8788C27.4209 68.1403 27.5969 68.2486 29.7636 68.8038C34.3542 69.9684 38.85 69.2236 43.3323 68.3299C48.4375 67.3142 51.6198 63.9559 53.5156 59.3247C54.5584 56.7924 54.2604 54.1653 53.4479 51.0913Z" fill="#CD4631"/>
</svg>
