<svg width="199" height="175" viewBox="0 0 199 175" fill="none" xmlns="http://www.w3.org/2000/svg">
<path d="M85.5202 61.6082C82.9845 57.6046 81.1397 54.6663 79.2805 51.7635C71.8156 40.017 64.265 28.2773 56.9146 16.4528C55.1481 13.6288 53.6969 10.4352 52.953 7.23718C52.5567 5.3385 53.3126 2.53838 54.6228 1.24527C55.3889 0.47788 58.8029 1.27534 60.1225 2.42862C63.3681 5.18681 66.32 8.36469 68.9571 11.7054C77.1463 22.1709 85.1422 32.8068 93.5304 43.8079C97.1726 37.6594 100.658 31.4889 104.471 25.5336C107.41 20.923 110.706 16.4564 114.066 12.1398C116.237 9.33082 119.234 7.35226 122.839 9.4271C126.586 11.5595 126.607 15.2113 125.114 18.7076C120.734 29.1541 116.155 39.4785 111.703 49.8962C110.627 52.3599 109.693 54.8812 108.687 57.3737C108.936 57.8881 113.498 56.2507 115.687 55.3532C134.395 47.664 153.074 40.0461 171.868 32.5569C174.492 31.5041 177.502 30.9378 180.331 30.92C181.832 30.9043 184.101 32.2751 184.585 33.5465C185.068 34.8178 184.27 37.3111 183.16 38.3126C181.056 40.2374 178.466 41.7183 175.855 42.9423C158.611 51.2218 141.324 59.4014 124.058 67.6309C122.163 68.5224 120.239 69.4851 117.399 70.8652C126.654 73.8529 135.045 76.4095 143.321 79.2508C159.965 85.0124 176.588 90.9309 193.19 96.7993C194.203 97.1669 195.274 97.5989 196.059 98.1225C201.19 101.558 198.435 106.947 193.936 105.96C188.436 104.777 182.814 103.792 177.387 102.224C157.97 96.5449 138.639 90.6519 119.265 84.8657C118.858 84.7429 118.443 84.7414 117.136 84.5866C120.653 90.6837 123.908 96.302 127.176 101.885C133.322 112.478 139.617 123.007 145.562 133.686C147.143 136.559 148.193 139.922 148.63 143.162C149.116 146.587 146.476 148.296 143.707 146.31C140.347 143.836 137.109 140.75 134.808 137.297C123.566 120.508 112.668 103.484 101.655 86.5394C100.43 84.6376 99.2043 82.7358 97.4379 79.9119C93.6421 87.7786 90.2838 94.8697 86.7827 101.903C76.3511 122.825 65.9195 143.748 55.4166 164.641C54.2401 166.94 52.7994 169.174 51.1662 171.165C48.9384 173.91 45.9635 175.111 42.6012 173.465C39.4532 171.906 38.4373 168.97 39.1013 165.678C39.7435 162.542 40.6644 159.436 41.8922 156.495C49.8908 137.282 57.9823 118.148 66.0523 98.9647C66.6625 97.5548 67.187 96.1517 68.178 93.6949C65.9039 94.5992 64.345 95.171 62.7931 95.8284C45.472 103.166 28.1365 110.54 10.7796 117.863C8.82724 118.69 6.69636 119.445 4.59546 119.509C3.16626 119.553 1.03871 118.654 0.412158 117.531C-0.214391 116.409 0.418805 114.222 0.921494 112.976C2.53707 109.073 5.34705 108.178 8.10821 106.684C24.3605 97.8799 40.7482 89.2548 57.1785 80.7296C63.1083 77.6567 69.2658 75.0481 76.6539 71.6526C66.5344 68.8541 57.7143 66.5385 49.0092 63.938C40.6397 61.4314 32.3851 58.64 24.0517 55.9411C23.1662 55.6667 22.3312 55.1643 21.5889 54.7407C17.6846 52.5862 21.7573 49.1781 23.0502 49.3685C31.9581 50.6432 40.9087 52.0179 49.7226 53.8342C60.1433 56.0918 83.0053 61.4632 85.5202 61.6082Z" fill="black"/>
</svg>
